<svg xmlns="http://www.w3.org/2000/svg" version="1.1" xmlns:xlink="http://www.w3.org/1999/xlink" width="512" height="512" x="0" y="0" viewBox="0 0 64 64" style="enable-background:new 0 0 512 512" xml:space="preserve" class=""><g><path d="M32 62a30 30 0 1 1 30-30 30.034 30.034 0 0 1-30 30zm0-56a26 26 0 1 0 26 26A26.03 26.03 0 0 0 32 6zm11.047 9.84-16.478 5.885a8 8 0 0 0-4.844 4.844L15.84 43.047a4 4 0 0 0 5.113 5.113l16.478-5.885a8 8 0 0 0 4.844-4.844l5.885-16.479a4 4 0 0 0-5.113-5.112zM32 36a4 4 0 1 1 4-4 4 4 0 0 1-4 4z" fill="#00615c" opacity="1" data-original="#000000" class=""></path></g></svg>