<svg xmlns="http://www.w3.org/2000/svg" version="1.1" xmlns:xlink="http://www.w3.org/1999/xlink" width="512" height="512" x="0" y="0" viewBox="0 0 512 512" style="enable-background:new 0 0 512 512" xml:space="preserve" class=""><g><path d="M88.866 103.132C51.995 143.42 29.5 197.083 29.5 256c0 117.67 89.73 214.38 204.5 225.44M234 30.56c-45.173 4.353-86.467 21.975-119.937 48.921M278 30.56C392.77 41.62 482.5 138.33 482.5 256S392.77 470.38 278 481.44" style="stroke-width:15;stroke-linecap:round;stroke-linejoin:round;stroke-miterlimit:10;" fill="none" stroke="#00615c" stroke-width="15" stroke-linecap="round" stroke-linejoin="round" stroke-miterlimit="10" data-original="#000000" opacity="1" class=""></path><circle cx="256" cy="256" r="175.367" style="stroke-width:15;stroke-linecap:round;stroke-linejoin:round;stroke-miterlimit:10;" fill="none" stroke="#00615c" stroke-width="15" stroke-linecap="round" stroke-linejoin="round" stroke-miterlimit="10" data-original="#000000" opacity="1" class=""></circle><path d="M120.381 223.457v65.032c.719.123 22.791 0 22.791 0M293.85 229.014a32.391 32.391 0 0 0-18.195-5.558c-17.973 0-32.543 14.57-32.543 32.543s14.57 32.543 32.543 32.543 28.093-14.57 28.093-32.543h-19.47" style="stroke-width:15;stroke-linecap:round;stroke-linejoin:round;stroke-miterlimit:10;" fill="none" stroke="#00615c" stroke-width="15" stroke-linecap="round" stroke-linejoin="round" stroke-miterlimit="10" data-original="#000000" opacity="1" class=""></path><circle cx="187.784" cy="256" r="32.543" style="stroke-width:15;stroke-linecap:round;stroke-linejoin:round;stroke-miterlimit:10;" fill="none" stroke="#00615c" stroke-width="15" stroke-linecap="round" stroke-linejoin="round" stroke-miterlimit="10" data-original="#000000" opacity="1" class=""></circle><circle cx="359.076" cy="256" r="32.543" style="stroke-width:15;stroke-linecap:round;stroke-linejoin:round;stroke-miterlimit:10;" fill="none" stroke="#00615c" stroke-width="15" stroke-linecap="round" stroke-linejoin="round" stroke-miterlimit="10" data-original="#000000" opacity="1" class=""></circle><path d="M460.5 29.5H278M234 29.5H51.5M7.5 29.5h0c0-12.15 9.85-22 22-22h0c12.15 0 22 9.85 22 22v0c0 12.15-9.85 22-22 22h0c-12.15 0-22-9.85-22-22zM460.5 29.5h0c0-12.15 9.85-22 22-22h0c12.15 0 22 9.85 22 22v0c0 12.15-9.85 22-22 22h0c-12.15 0-22-9.85-22-22zM234 46.5v-34a5 5 0 0 1 5-5h34a5 5 0 0 1 5 5v34a5 5 0 0 1-5 5h-34a5 5 0 0 1-5-5zM374.795 482.5H278M460.5 482.5h-50.705M234 482.5H51.5M7.5 482.5h0c0-12.15 9.85-22 22-22h0c12.15 0 22 9.85 22 22v0c0 12.15-9.85 22-22 22h0c-12.15 0-22-9.85-22-22zM460.5 482.5h0c0-12.15 9.85-22 22-22h0c12.15 0 22 9.85 22 22v0c0 12.15-9.85 22-22 22h0c-12.15 0-22-9.85-22-22zM234 499.5v-34a5 5 0 0 1 5-5h34a5 5 0 0 1 5 5v34a5 5 0 0 1-5 5h-34a5 5 0 0 1-5-5z" style="stroke-width:15;stroke-linecap:round;stroke-linejoin:round;stroke-miterlimit:10;" fill="none" stroke="#00615c" stroke-width="15" stroke-linecap="round" stroke-linejoin="round" stroke-miterlimit="10" data-original="#000000" opacity="1" class=""></path></g></svg>