<svg xmlns="http://www.w3.org/2000/svg" version="1.1" xmlns:xlink="http://www.w3.org/1999/xlink" width="512" height="512" x="0" y="0" viewBox="0 0 91 91" style="enable-background:new 0 0 512 512" xml:space="preserve" class=""><g><path d="M63.72 55.87a1.45 1.45 0 0 1-.94-.34l-10.94-8.86a1.52 1.52 0 0 1-.55-1.17V21a1.5 1.5 0 1 1 3 0v23.79l10.38 8.41a1.5 1.5 0 0 1-1 2.67zM37.73 61.88H21a1.5 1.5 0 1 1 0-3h16.73a1.5 1.5 0 0 1 0 3zM30.94 45.78H2.79a1.5 1.5 0 1 1 0-3h28.15a1.5 1.5 0 0 1 0 3zM20.23 29.5h-10a1.5 1.5 0 0 1 0-3h10a1.5 1.5 0 1 1 0 3zM52.79 74a1.5 1.5 0 0 1-1.5-1.5v-.3a1.5 1.5 0 0 1 3 0v.3a1.5 1.5 0 0 1-1.5 1.5zM80.73 47h-.3a1.5 1.5 0 0 1 0-3h.3a1.5 1.5 0 0 1 0 3z" fill="#00615c" opacity="1" data-original="#000000"></path><path d="M17.81 51.86a1.49 1.49 0 0 1-1.48-1.29A35.59 35.59 0 0 1 16 45.5a1.5 1.5 0 0 1 3 0 34 34 0 0 0 .32 4.65A1.5 1.5 0 0 1 18 51.84zM52.79 82.31A36.51 36.51 0 0 1 26.3 71.06 1.5 1.5 0 0 1 28.46 69a33.49 33.49 0 0 0 24.33 10.31A33.81 33.81 0 1 0 22.48 30.5a1.5 1.5 0 0 1-2.69-1.34 36.82 36.82 0 1 1 33 53.15zM12.54 61.88H9.81a1.5 1.5 0 1 1 0-3h2.73a1.5 1.5 0 0 1 0 3z" fill="#00615c" opacity="1" data-original="#000000"></path><path d="M19.18 35.68a1.51 1.51 0 0 1-1.35-2.15l2.08-4.35a1.5 1.5 0 1 1 2.71 1.29l-2.08 4.36a1.51 1.51 0 0 1-1.36.85z" fill="#00615c" opacity="1" data-original="#000000"></path></g></svg>