<svg xmlns="http://www.w3.org/2000/svg" version="1.1" xmlns:xlink="http://www.w3.org/1999/xlink" width="512" height="512" x="0" y="0" viewBox="0 0 24 24" style="enable-background:new 0 0 512 512" xml:space="preserve" fill-rule="evenodd" class=""><g><path d="M22.75 6A4.75 4.75 0 0 0 18 1.25H6A4.75 4.75 0 0 0 1.25 6v12A4.75 4.75 0 0 0 6 22.75h12A4.75 4.75 0 0 0 22.75 18zm-1.5 0v12A3.247 3.247 0 0 1 18 21.25H6A3.247 3.247 0 0 1 2.75 18V6A3.247 3.247 0 0 1 6 2.75h12A3.247 3.247 0 0 1 21.25 6z" fill="#00615c" opacity="1" data-original="#000000" class=""></path><path d="m12.488 8.163-2.4 7.2a.751.751 0 0 0 1.424.474l2.4-7.2a.751.751 0 0 0-1.424-.474zM15.07 10.13 16.939 12l-1.869 1.87a.749.749 0 1 0 1.06 1.06l2.4-2.4a.749.749 0 0 0 0-1.06l-2.4-2.4a.749.749 0 1 0-1.06 1.06zM7.87 9.07l-2.4 2.4a.749.749 0 0 0 0 1.06l2.4 2.4a.749.749 0 1 0 1.06-1.06L7.061 12l1.869-1.87a.749.749 0 1 0-1.06-1.06z" fill="#00615c" opacity="1" data-original="#000000" class=""></path></g></svg>